<?xml version="1.0" encoding="UTF-8"?>
<svg id="Layer_1" xmlns="http://www.w3.org/2000/svg" version="1.1" viewBox="0 0 500 500">
  <!-- Generator: Adobe Illustrator 29.4.0, SVG Export Plug-In . SVG Version: 2.1.0 Build 152)  -->
  <defs>
    <style>
      .st0 {
        fill-rule: evenodd;
        stroke: #fff;
        stroke-miterlimit: 10;
        stroke-width: 23.2px;
      }

      .st1 {
        fill: #fff;
      }

      .st2 {
        display: none;
      }
    </style>
  </defs>
  <path class="st2" d="M394.1,327.6c-7.1-10.9-14.4-22-21.3-33.3-8,13.3-16.4,26.5-24.5,39.2-20.7,32.4-39.7,62.1-39.7,74.1,0,27.5,13.2,45.5,30.9,54.4,9.1,4.4,19,6.9,29.2,7.4,10.3.6,20.7-.9,30.5-4.4,20.7-7.1,35.3-25.5,37.6-47.2.8-24.2-20.3-56.3-42.6-90.2Z"/>
  <path class="st0" d="M382,267c13.4,57.4,74.9,106.8,71.8,154.4-9.3,84.5-144,81.1-144-9.4s60.7-95.2,72.2-145Z"/>
  <path class="st1" d="M164.4,59.5c-31.4,3.4-49.8,14.2-58.3,28-5.8,9.9-7.1,21.7-3.8,32.7l.3,1,61.7-61.7h0ZM306,93.6c-22.4-22.4-45-39.9-63.6-49.6-13.2-6.8-23.5-9.5-28.6-6.7l-2.5,2.5c-3.7,6.1-1.6,19.2,5.5,35.5,10.9,23.5,25.9,44.9,44.5,63,21.3,21.3,44.2,37.3,63.6,46,13.8,6.1,25.2,8.9,31.8,7.1l5.9-5.9c1.4-5.9-1.5-15.8-7.6-28-9.5-19.1-26.8-41.9-48.9-64ZM251.2,26.9c20.4,10.5,44.7,29.4,68.5,53.1,23.7,23.7,42.2,48.2,52.4,69.2,11.5,23,13.3,42.7,2.1,53.9-1.8,1.8-3.9,3.2-6.2,4.4l-120,120c-7.2,7.3-10.2,10.3-22.6,13.1-6.2,1.3-12.5,1.7-18.8,1.1-6.5-.6-12.9-2-19.1-4.1-25.6-8.6-52.2-26.6-74.3-48.7-22.2-22.1-40.7-48.9-49.7-74.5-1.7-4.6-3-9.4-3.9-14.3-.9-4.5-1.3-9.1-1.3-13.7-.4-7.2.9-14.3,3.8-20.9,2.9-5.7,6.9-10.8,11.6-15.1l.5-.5,14.5-14.4c-1.5-3.4-2.8-7-3.7-10.6-4.7-15.8-2.6-32.9,5.9-47.1,13.1-21.4,42.5-37.3,93.4-37.9l12.8-12.8c1.4-1.9,3-3.5,4.8-4.8.6-.6,1.3-1,2.1-1.4,11.4-6.9,28.2-4.1,47.6,5.9ZM338.8,209.4c-7.5-1.7-14.8-4.2-21.8-7.4-21.5-9.7-46.4-27-69.3-50-20.3-19.8-36.8-43.2-48.6-69-3.3-7.5-5.8-15.5-7.3-23.6l-80.1,80.1c3.6,5.2,7.8,9.9,12.6,14.1,22.3,19.7,57.9,29.7,97.1,12.9,4.7-1.9,10.1.3,12,5,1.9,4.6-.2,9.9-4.8,11.9-46.7,20-89.5,7.7-116.6-16.1-5-4.4-9.6-9.3-13.6-14.7l-11.3,11.4c-3.1,2.8-5.7,6-7.8,9.7-1.6,4-2.2,8.4-2,12.7,0,3.4.4,6.8,1,10.1.7,3.9,1.8,7.7,3.1,11.5,8,22.8,24.5,46.9,45.1,67.2,20.6,20.3,44.2,36.6,66.9,44.1,4.8,1.6,9.7,2.7,14.7,3.3h0c4.3.4,8.7.2,12.9-.7,5.2-.9,9.9-3.7,13.2-7.9.2-.2,2-2,1.9-2l102.6-102.6Z"/>
</svg>