<?xml version="1.0" encoding="UTF-8"?>
<svg id="a" xmlns="http://www.w3.org/2000/svg" version="1.1" viewBox="0 0 72 72">
  <!-- Generator: Adobe Illustrator 29.2.1, SVG Export Plug-In . SVG Version: 2.1.0 Build 116)  -->
  <defs>
    <style>
      .st0 {
        fill: #4d3e98;
      }

      .st1 {
        fill: #008fb5;
      }

      .st2 {
        fill: #973f98;
      }
    </style>
  </defs>
  <ellipse class="st1" cx="12.7" cy="29.7" rx="9.5" ry="11.6" transform="translate(-6.8 4) rotate(-14.1)"/>
  <ellipse class="st2" cx="42.7" cy="18.2" rx="3.7" ry="7.5" transform="translate(-3.2 11.6) rotate(-15)"/>
  <ellipse class="st2" cx="28.3" cy="41.9" rx="3.7" ry="7.5" transform="translate(-9.9 8.7) rotate(-15)"/>
  <ellipse class="st2" cx="40.9" cy="34.7" rx="3.7" ry="7.5" transform="translate(-7.6 11.7) rotate(-15)"/>
  <ellipse class="st0" cx="59" cy="33.6" rx="14.9" ry="11.2" transform="translate(18.9 88.3) rotate(-83.4)"/>
  <ellipse class="st1" cx="22.3" cy="8.4" rx="12" ry="6.6"/>
  <ellipse class="st0" cx="29.5" cy="22.8" rx="6.5" ry="7.7" transform="translate(-6.9 30.9) rotate(-50.3)"/>
  <ellipse class="st0" cx="55.1" cy="8.8" rx="6.5" ry="7.7" transform="translate(13.1 45.5) rotate(-50.2)"/>
  <path class="st0" d="M25.3,55.5c3.2-3,9.8-2.6,14.8.9s6.3,8.8,3.1,11.8c-3.2,3-9.8,2.6-14.8-.9-4.9-3.5-6.3-8.8-3.1-11.8Z"/>
  <ellipse class="st2" cx="49.8" cy="53.4" rx="5" ry="10" transform="translate(-21.6 37.9) rotate(-34.7)"/>
  <ellipse class="st2" cx="63.5" cy="60.2" rx="10" ry="5" transform="translate(-11.4 105.4) rotate(-74.6)"/>
  <ellipse class="st0" cx="12.7" cy="57.3" rx="13.6" ry="8.6" transform="translate(-43.6 40.6) rotate(-61)"/>
</svg>