<?xml version="1.0" encoding="UTF-8"?>
<svg id="Layer_1" xmlns="http://www.w3.org/2000/svg" version="1.1" viewBox="0 0 500 500">
  <!-- Generator: Adobe Illustrator 29.2.1, SVG Export Plug-In . SVG Version: 2.1.0 Build 116)  -->
  <defs>
    <style>
      .st0 {
        fill: orange;
      }
    </style>
  </defs>
  <g id="xF7uGE.tif">
    <g>
      <path class="st0" d="M144.3,487.7h-12.6c-8.3-1.5-15.6-4.2-21.9-10-26.7-24.7-18.5-76-25.9-109.3-10.7-47.8-47.3-85.4-55.6-134.1l-1.6-11.3c.3-5.8-.4-11.8,0-17.5,1.6-26.4,14.6-62,33.5-81s52.3-27.6,77-35.4,69-20.4,103.3-32.5c66.4-23.5,217-95.5,231.7,22.7,6.1,49.3-12.8,125.8-39.1,168-25.9,41.5-68.8,69-110.3,93.1-40.5,23.5-88.2,43.4-117.5,81.4-15.7,20.4-32.1,62.8-60.8,65.9h-.2ZM390.3,23.2c-49.3,2.8-103.9,27.6-150.4,43.7-45.5,15.7-94,26.6-138.5,43.9s-48.1,29.4-59.4,62.8c-28,83.2,43.2,132.7,53.6,208.5,4.2,30.9-3.1,100.5,45.5,96.5,23.9-2,35.9-31.2,47.2-48.6,33.9-52.3,85.9-71.6,137-101.8,46-27.2,88.1-56.2,111.3-106.1,17.9-38.6,33.3-106,25.5-147.8-7.5-40.6-32.6-53.1-71.9-50.9v-.2Z"/>
      <path class="st0" d="M350.9,55.8c26.9-1.6,58.3,2.3,74.9,26,26.2,37.3,8.3,110.8-12.5,147.9-34.6,61.7-128.4,101.1-192.4,123.8-45.4,16.1-70.6,17.4-104.6-19.5-39.4-42.6-81.9-107-53.7-166.6,16.1-33.9,49.6-43.4,82.7-53.5,24.8-7.6,50-13.8,74.7-21.6,41.5-13.1,87.2-33.9,130.9-36.5h0ZM355.3,67c-43.1,2.1-86.7,22.1-127.5,35s-71.4,19-105.8,31.4c-41.5,14.9-59.9,41.5-57,86.5,2.3,35.3,42.3,91.2,67.9,115.1,31.3,29.2,62,16.2,97.7,3.3,53-19.3,126.7-52.9,161.8-97.9s37.6-79.9,35-121.1-35-54-72.1-52.2h0Z"/>
      <path class="st0" d="M327.1,98.6c40.1-1.7,69.9,11.5,71.6,55.5,2.9,73.6-61.1,114.9-120.8,141-51.9,22.7-107.6,37.4-154.3-4.5s-61.2-103.6-6.9-135.8c54.3-32.2,70.8-25.3,100.4-33.4,34.5-9.3,74.3-21.4,109.9-22.9h0ZM317.3,112.7c-11.6.7-23.5,3.4-34.8,6-26.6,6.1-54.1,14-80.5,21.2-53,14.6-131.6,30.3-96.1,105.1,44.7,94.3,147.4,54.4,214.2,11,39.6-25.7,67.8-51.8,64.9-103.4-2.2-39.9-35.3-42-67.7-40h0Z"/>
      <path class="st0" d="M214.2,171.1c25.8-1.3,82.5-.3,68.1,40.8-16.2,46.2-105.5,81.5-138.4,34.1s-13.3-43.1,4.1-57.6,48.3-16.5,66.3-17.4h-.1ZM221.5,186.6c-14.4.2-52.2,5.8-63.4,14.5-11.6,9.1-8.7,26.9-.2,37.2,21.6,26.1,67.5,11.1,89.7-7.1,9.6-7.8,33.4-32,12.2-39.9s-27.7-4.9-38.3-4.7h0Z"/>
    </g>
  </g>
</svg>