<?xml version="1.0" encoding="UTF-8"?>
<svg id="a" xmlns="http://www.w3.org/2000/svg" version="1.1" viewBox="0 0 72 72">
  <!-- Generator: Adobe Illustrator 29.4.0, SVG Export Plug-In . SVG Version: 2.1.0 Build 152)  -->
  <defs>
    <style>
      .st0 {
        fill: #fff;
        stroke: #fff;
        stroke-miterlimit: 10;
        stroke-width: 3.9px;
      }
    </style>
  </defs>
  <g id="lmeIkl.tif">
    <path class="st0" d="M7.6,59.6h-3.3c-1.1,0-.2,0-.2,0l3.6-1.3c12.3-6.1,14.9-21.7,18.9-34.1s2.3-7.5,4.1-10.2c3.5-5.1,6,3.2,7,6,2.3,7.2,3.6,14.8,6,22.1,1.3,3.9,3.1,9,7.7,5.5s6.4-7.4,9.7-2.8,2.9,7.6,4.7,11,1.6,2.5,2.4,3.7h-1.3c-.5-.7-1-1.4-1.5-2.2-2-3.4-2.7-7.4-4.5-10.8-.7-1.2-1.5-2.6-2.9-2.5s-4.3,3.2-5.9,4.4c-6.3,4.7-8.6-3.5-10.1-8.4s-3.3-14.2-5.6-21-1.8-5-3-5.5-1.5.8-1.9,1.4c-.7,1.1-1.2,2.5-1.8,3.7-5.3,13.5-6.9,32.3-20.2,39.9-.4.2-.9.5-1.4.7s-.4,0-.6.2v.2Z"/>
  </g>
</svg>