<?xml version="1.0" encoding="UTF-8"?>
<svg id="a" xmlns="http://www.w3.org/2000/svg" version="1.1" viewBox="0 0 72 72">
  <!-- Generator: Adobe Illustrator 29.4.0, SVG Export Plug-In . SVG Version: 2.1.0 Build 152)  -->
  <defs>
    <style>
      .st0 {
        fill: #fff;
        stroke: #fff;
        stroke-miterlimit: 10;
        stroke-width: .8px;
      }
    </style>
  </defs>
  <g id="lmeIkl.tif">
    <path class="st0" d="M5.6,59.6c-1.1,0-2.3,0-3.5,0s-.2,0-.2,0l3.8-1.3c13.1-6.1,15.9-21.7,20.1-34.1s2.5-7.5,4.4-10.2c3.7-5.1,6.4,3.2,7.4,6,2.5,7.2,3.8,14.8,6.4,22.1,1.4,3.9,3.3,9,8.2,5.5s6.8-7.4,10.3-2.8,3.1,7.6,5,11,1.7,2.5,2.6,3.7c0,0,0,0-.1,0-.4,0-.9,0-1.3,0-.5-.7-1.1-1.4-1.6-2.2-2.1-3.4-2.9-7.4-4.8-10.8-.7-1.2-1.6-2.6-3.1-2.5s-4.6,3.2-6.3,4.4c-6.7,4.7-9.2-3.5-10.7-8.4s-3.5-14.2-6-21-1.9-5-3.2-5.5-1.6.8-2,1.4c-.7,1.1-1.3,2.5-1.9,3.7-5.6,13.5-7.3,32.3-21.5,39.9-.4.2-1,.5-1.5.7s-.4,0-.6.2Z"/>
  </g>
</svg>