<?xml version="1.0" encoding="UTF-8"?>
<svg id="a" xmlns="http://www.w3.org/2000/svg" version="1.1" viewBox="0 0 200 72">
  <!-- Generator: Adobe Illustrator 29.4.0, SVG Export Plug-In . SVG Version: 2.1.0 Build 152)  -->
  <defs>
    <style>
      .st0 {
        fill: #fff;
        stroke: #fff;
        stroke-miterlimit: 10;
        stroke-width: 6.4px;
      }
    </style>
  </defs>
  <g id="lmeIkl.tif">
    <path class="st0" d="M19.5,59.6h-8.9c-3,0-.5,0-.5,0l9.7-1.3c33.2-6.1,40.2-21.7,51-34.1,10.8-12.4,6.2-7.5,11.1-10.2,9.4-5.1,16.2,3.2,18.9,6,6.2,7.2,9.7,14.8,16.2,22.1,3.5,3.9,8.4,9,20.8,5.5,12.4-3.5,17.3-7.4,26.2-2.8s7.8,7.6,12.7,11c4.9,3.4,4.3,2.5,6.5,3.7h-3.5c-1.3-.7-2.7-1.4-4-2.2-5.4-3.4-7.3-7.4-12.1-10.8-1.9-1.2-4-2.6-7.8-2.5s-11.6,3.2-15.9,4.4c-17,4.7-23.2-3.5-27.3-8.4s-8.9-14.2-15.1-21c-6.2-6.8-4.9-5-8.1-5.5s-4,.8-5.1,1.4c-1.9,1.1-3.2,2.5-4.9,3.7-14.3,13.5-18.6,32.3-54.5,39.9-1.1.2-2.4.5-3.8.7s-1.1,0-1.6.2v.2h.3Z"/>
  </g>
</svg>