<?xml version="1.0" encoding="UTF-8"?>
<svg id="a" xmlns="http://www.w3.org/2000/svg" version="1.1" viewBox="0 0 72 72">
  <!-- Generator: Adobe Illustrator 29.2.1, SVG Export Plug-In . SVG Version: 2.1.0 Build 116)  -->
  <defs>
    <style>
      .st0 {
        fill: none;
        opacity: .7;
        stroke: #fff;
      }

      .st0, .st1, .st2, .st3 {
        isolation: isolate;
      }

      .st0, .st4 {
        stroke-miterlimit: 10;
      }

      .st1 {
        fill: #008fb5;
      }

      .st2 {
        fill: #973f98;
      }

      .st3, .st4 {
        fill: #4d3e98;
      }

      .st4 {
        stroke: #4d3e98;
      }
    </style>
  </defs>
  <ellipse class="st3" cx="59.1" cy="33.7" rx="14.9" ry="11.2" transform="translate(18.8 88.5) rotate(-83.4)"/>
  <ellipse class="st2" cx="49.8" cy="53.5" rx="5" ry="10" transform="translate(-21.6 37.9) rotate(-34.7)"/>
  <ellipse class="st1" cx="12.7" cy="29.8" rx="9.5" ry="11.6" transform="translate(-6.9 4) rotate(-14.1)"/>
  <ellipse class="st2" cx="42.7" cy="18.3" rx="3.7" ry="7.5" transform="translate(-3.3 11.7) rotate(-15)"/>
  <ellipse class="st2" cx="28.3" cy="41.9" rx="3.7" ry="7.5" transform="translate(-9.9 8.8) rotate(-15)"/>
  <ellipse class="st1" cx="22.3" cy="8.5" rx="12" ry="6.6"/>
  <ellipse class="st3" cx="55.1" cy="9" rx="6.5" ry="7.7" transform="translate(12.9 45.6) rotate(-50.2)"/>
  <ellipse class="st2" cx="63.5" cy="60.3" rx="10" ry="5" transform="translate(-11.5 105.5) rotate(-74.6)"/>
  <ellipse class="st3" cx="12.7" cy="57.4" rx="13.6" ry="8.6" transform="translate(-43.7 40.7) rotate(-61)"/>
  <ellipse class="st2" cx="40.9" cy="34.6" rx="3.7" ry="7.5" transform="translate(-7.6 11.8) rotate(-15)"/>
  <polyline class="st0" points="24.9 56.2 101.2 -29 44.4 66.7"/>
  <path class="st0" d="M25.5,16.5c0,.1,75.7-45.6,75.7-45.6L34.6,28.6"/>
  <path class="st4" d="M25.4,55.5c3.2-3,9.8-2.6,14.8.9s6.3,8.8,3.1,11.8-9.8,2.6-14.8-.9c-4.9-3.5-6.3-8.8-3.1-11.8Z"/>
  <ellipse class="st4" cx="29.6" cy="22.9" rx="6.5" ry="7.7" transform="translate(-7 31) rotate(-50.3)"/>
</svg>