<?xml version="1.0" encoding="UTF-8"?><svg id="a" xmlns="http://www.w3.org/2000/svg" viewBox="0 0 72 72"><rect x="0" width="9" height="9" style="fill:#fff;"/><rect x="27" width="9" height="9" style="fill:#a7a9ac;"/><rect x="9" width="9" height="9" style="fill:#a7a9ac;"/><rect x="18" width="9" height="9" style="fill:#fff;"/><rect x="0" y="18" width="9" height="9" style="fill:#fff;"/><rect x="27" y="18" width="9" height="9" style="fill:#a7a9ac;"/><rect x="9" y="18" width="9" height="9" style="fill:#a7a9ac;"/><rect x="18" y="18" width="9" height="9" style="fill:#fff;"/><rect x="0" y="9" width="9" height="9" style="fill:#a7a9ac;"/><rect x="27" y="9" width="9" height="9" style="fill:#fff;"/><rect x="9" y="9" width="9" height="9" style="fill:#fff;"/><rect x="18" y="9" width="9" height="9" style="fill:#a7a9ac;"/><rect x="0" y="27" width="9" height="9" style="fill:#a7a9ac;"/><rect x="27" y="27" width="9" height="9" style="fill:#fff;"/><rect x="9" y="27" width="9" height="9" style="fill:#fff;"/><rect x="18" y="27" width="9" height="9" style="fill:#a7a9ac;"/><rect x="63" y="63" width="9" height="9" transform="translate(135 135) rotate(180)" style="fill:#fff;"/><rect x="36" y="63" width="9" height="9" transform="translate(81 135) rotate(180)" style="fill:#a7a9ac;"/><rect x="54" y="63" width="9" height="9" transform="translate(117 135) rotate(180)" style="fill:#a7a9ac;"/><rect x="45" y="63" width="9" height="9" transform="translate(99 135) rotate(180)" style="fill:#fff;"/><rect x="63" y="45" width="9" height="9" transform="translate(135 99) rotate(180)" style="fill:#fff;"/><rect x="36" y="45" width="9" height="9" transform="translate(81 99) rotate(180)" style="fill:#a7a9ac;"/><rect x="54" y="45" width="9" height="9" transform="translate(117 99) rotate(180)" style="fill:#a7a9ac;"/><rect x="45" y="45" width="9" height="9" transform="translate(99 99) rotate(180)" style="fill:#fff;"/><rect x="63" y="54" width="9" height="9" transform="translate(135 117) rotate(180)" style="fill:#a7a9ac;"/><rect x="36" y="54" width="9" height="9" transform="translate(81 117) rotate(180)" style="fill:#fff;"/><rect x="54" y="54" width="9" height="9" transform="translate(117 117) rotate(180)" style="fill:#fff;"/><rect x="45" y="54" width="9" height="9" transform="translate(99 117) rotate(180)" style="fill:#a7a9ac;"/><rect x="63" y="36" width="9" height="9" transform="translate(135 81) rotate(180)" style="fill:#a7a9ac;"/><rect x="36" y="36" width="9" height="9" transform="translate(81 81) rotate(180)" style="fill:#fff;"/><rect x="54" y="36" width="9" height="9" transform="translate(117 81) rotate(180)" style="fill:#fff;"/><rect x="45" y="36" width="9" height="9" transform="translate(99 81) rotate(180)" style="fill:#a7a9ac;"/><rect x="27" y="63" width="9" height="9" transform="translate(63 135) rotate(180)" style="fill:#fff;"/><rect x="0" y="63" width="9" height="9" transform="translate(9 135) rotate(180)" style="fill:#a7a9ac;"/><rect x="18" y="63" width="9" height="9" transform="translate(45 135) rotate(180)" style="fill:#a7a9ac;"/><rect x="9" y="63" width="9" height="9" transform="translate(27 135) rotate(180)" style="fill:#fff;"/><rect x="27" y="45" width="9" height="9" transform="translate(63 99) rotate(180)" style="fill:#fff;"/><rect x="0" y="45" width="9" height="9" transform="translate(9 99) rotate(180)" style="fill:#a7a9ac;"/><rect x="18" y="45" width="9" height="9" transform="translate(45 99) rotate(180)" style="fill:#a7a9ac;"/><rect x="9" y="45" width="9" height="9" transform="translate(27 99) rotate(180)" style="fill:#fff;"/><rect x="27" y="54" width="9" height="9" transform="translate(63 117) rotate(180)" style="fill:#a7a9ac;"/><rect x="0" y="54" width="9" height="9" transform="translate(9 117) rotate(180)" style="fill:#fff;"/><rect x="18" y="54" width="9" height="9" transform="translate(45 117) rotate(180)" style="fill:#fff;"/><rect x="9" y="54" width="9" height="9" transform="translate(27 117) rotate(180)" style="fill:#a7a9ac;"/><rect x="27" y="36" width="9" height="9" transform="translate(63 81) rotate(180)" style="fill:#a7a9ac;"/><rect x="0" y="36" width="9" height="9" transform="translate(9 81) rotate(180)" style="fill:#fff;"/><rect x="18" y="36" width="9" height="9" transform="translate(45 81) rotate(180)" style="fill:#fff;"/><rect x="9" y="36" width="9" height="9" transform="translate(27 81) rotate(180)" style="fill:#a7a9ac;"/><rect x="63" y="27" width="9" height="9" transform="translate(135 63) rotate(180)" style="fill:#fff;"/><rect x="36" y="27" width="9" height="9" transform="translate(81 63) rotate(180)" style="fill:#a7a9ac;"/><rect x="54" y="27" width="9" height="9" transform="translate(117 63) rotate(180)" style="fill:#a7a9ac;"/><rect x="45" y="27" width="9" height="9" transform="translate(99 63) rotate(180)" style="fill:#fff;"/><rect x="63" y="9" width="9" height="9" transform="translate(135 27) rotate(180)" style="fill:#fff;"/><rect x="36" y="9" width="9" height="9" transform="translate(81 27) rotate(180)" style="fill:#a7a9ac;"/><rect x="54" y="9" width="9" height="9" transform="translate(117 27) rotate(180)" style="fill:#a7a9ac;"/><rect x="45" y="9" width="9" height="9" transform="translate(99 27) rotate(180)" style="fill:#fff;"/><rect x="63" y="18" width="9" height="9" transform="translate(135 45) rotate(180)" style="fill:#a7a9ac;"/><rect x="36" y="18" width="9" height="9" transform="translate(81 45) rotate(180)" style="fill:#fff;"/><rect x="54" y="18" width="9" height="9" transform="translate(117 45) rotate(180)" style="fill:#fff;"/><rect x="45" y="18" width="9" height="9" transform="translate(99 45) rotate(180)" style="fill:#a7a9ac;"/><rect x="63" width="9" height="9" transform="translate(135 9) rotate(180)" style="fill:#a7a9ac;"/><rect x="36" width="9" height="9" transform="translate(81 9) rotate(180)" style="fill:#fff;"/><rect x="54" width="9" height="9" transform="translate(117 9) rotate(180)" style="fill:#fff;"/><rect x="45" width="9" height="9" transform="translate(99 9) rotate(180)" style="fill:#a7a9ac;"/><ellipse cx="12.69" cy="29.78" rx="9.5" ry="11.62" transform="translate(-6.86 3.98) rotate(-14.07)" style="fill:#008fb5;"/><ellipse cx="42.74" cy="18.27" rx="3.73" ry="7.46" transform="translate(-3.27 11.65) rotate(-14.96)" style="fill:#973f98;"/><ellipse cx="28.3" cy="42.02" rx="3.73" ry="7.46" transform="translate(-9.89 8.73) rotate(-14.96)" style="fill:#973f98;"/><ellipse cx="40.88" cy="34.74" rx="3.73" ry="7.46" transform="translate(-7.58 11.73) rotate(-14.96)" style="fill:#973f98;"/><ellipse cx="59.01" cy="33.65" rx="14.91" ry="11.15" transform="translate(18.82 88.42) rotate(-83.42)" style="fill:#4d3e98;"/><ellipse cx="22.33" cy="8.5" rx="11.97" ry="6.59" style="fill:#008fb5;"/><ellipse cx="29.53" cy="22.88" rx="6.48" ry="7.66" transform="translate(-6.94 30.96) rotate(-50.25)" style="fill:#4d3e98;"/><ellipse cx="55.09" cy="8.9" rx="6.48" ry="7.66" transform="translate(13.02 45.57) rotate(-50.25)" style="fill:#4d3e98;"/><path d="M25.37,55.54c3.22-3.03,9.83-2.64,14.76.86,4.93,3.5,6.32,8.8,3.1,11.82-3.22,3.03-9.83,2.64-14.76-.86-4.93-3.5-6.32-8.8-3.1-11.82Z" style="fill:#4d3e98;"/><ellipse cx="49.79" cy="53.5" rx="5.01" ry="10.03" transform="translate(-21.61 37.9) rotate(-34.73)" style="fill:#973f98;"/><ellipse cx="63.54" cy="60.28" rx="10.03" ry="5.01" transform="translate(-11.48 105.47) rotate(-74.56)" style="fill:#973f98;"/><ellipse cx="12.69" cy="57.4" rx="13.63" ry="8.55" transform="translate(-43.67 40.68) rotate(-61.01)" style="fill:#4d3e98;"/></svg>