<?xml version="1.0" encoding="UTF-8"?>
<svg id="Layer_1" xmlns="http://www.w3.org/2000/svg" version="1.1" viewBox="0 0 250 250">
  <!-- Generator: Adobe Illustrator 29.2.1, SVG Export Plug-In . SVG Version: 2.1.0 Build 116)  -->
  <defs>
    <style>
      .st0 {
        fill: #fff;
        stroke: #000;
        stroke-miterlimit: 10;
        stroke-width: 3px;
      }
    </style>
  </defs>
  <polygon class="st0" points="58.3 46.2 101.5 82.9 101.5 147.4 67.9 147.4 67.9 109.9 44.8 109.9 44.8 147.4 11.2 147.4 11.2 82.9 58.3 46.2"/>
  <polygon class="st0" points="195.6 46.2 238.8 82.9 238.8 147.4 205.2 147.4 205.2 109.9 182.1 109.9 182.1 147.4 148.5 147.4 148.5 82.9 195.6 46.2"/>
  <g id="QNTKK4.tif">
    <polygon class="st0" points="127.5 102.6 170.7 139.2 170.7 203.8 137.2 203.8 137.2 166.2 114 166.2 114 203.8 80.4 203.8 80.4 139.2 127.5 102.6"/>
  </g>
</svg>