<?xml version="1.0" encoding="UTF-8"?><svg id="a" xmlns="http://www.w3.org/2000/svg" viewBox="0 0 72 72"><rect x="0" width="72" height="72"/><ellipse cx="59.01" cy="33.65" rx="14.91" ry="11.15" transform="translate(18.82 88.42) rotate(-83.42)" style="fill:#4d3e98; opacity:.4;"/><ellipse cx="49.79" cy="53.5" rx="5.01" ry="10.03" transform="translate(-21.61 37.9) rotate(-34.73)" style="fill:#973f98; opacity:.4;"/><ellipse cx="12.69" cy="29.78" rx="9.5" ry="11.62" transform="translate(-6.86 3.98) rotate(-14.07)" style="fill:#008fb5; opacity:.4;"/><ellipse cx="42.74" cy="18.27" rx="3.73" ry="7.46" transform="translate(-3.27 11.65) rotate(-14.96)" style="fill:#973f98; opacity:.4;"/><ellipse cx="28.3" cy="42.02" rx="3.73" ry="7.46" transform="translate(-9.89 8.73) rotate(-14.96)" style="fill:#973f98; opacity:.4;"/><ellipse cx="22.33" cy="8.5" rx="11.97" ry="6.59" style="fill:#008fb5; opacity:.4;"/><ellipse cx="55.09" cy="8.9" rx="6.48" ry="7.66" transform="translate(13.02 45.57) rotate(-50.25)" style="fill:#4d3e98; opacity:.4;"/><polyline points="24.87 56.15 101.18 -29.05 44.36 66.73" style="fill:#fff; opacity:.51;"/><ellipse cx="63.54" cy="60.28" rx="10.03" ry="5.01" transform="translate(-11.48 105.47) rotate(-74.56)" style="fill:#973f98; opacity:.4;"/><ellipse cx="12.69" cy="57.4" rx="13.63" ry="8.55" transform="translate(-43.67 40.68) rotate(-61.01)" style="fill:#4d3e98; opacity:.4;"/><path d="M25.37,55.54c3.22-3.03,9.83-2.64,14.76.86,4.93,3.5,6.32,8.8,3.1,11.82-3.22,3.03-9.83,2.64-14.76-.86-4.93-3.5-6.32-8.8-3.1-11.82Z" style="fill:#4d3e98;"/><ellipse cx="40.88" cy="34.74" rx="3.73" ry="7.46" transform="translate(-7.58 11.73) rotate(-14.96)" style="fill:#973f98; opacity:.4;"/><path d="M25.47,16.54c0,.14,75.72-45.6,75.72-45.6L34.57,28.61" style="fill:#fff; opacity:.5;"/><ellipse cx="29.53" cy="22.88" rx="6.48" ry="7.66" transform="translate(-6.94 30.96) rotate(-50.25)" style="fill:#4d3e98;"/></svg>